# xmcd CD database file
#
# Track frame offsets:
#	150
#	13426
#	23905
#	38486
#	53023
#	66928
#	78059
#	94248
#	109473
#	121458
#	133472
#	146507
#	160366
#	174103
#
# Disc length: 2511 seconds
#
# Revision: 0
# Processed by: cddbd v1.5.2PL0 Copyright (c) Steve Scherf et al.
# Submitted via: CDex 1.50beta9
#
DISCID=bf09cd0e
DTITLE=JOHNNY LOUGHREY - WALKING IN THE SUNSHINE
DYEAR=1900
DGENRE=Country
TTITLE0=Walking In The Sunshine
TTITLE1=Just Between You And Me
TTITLE2=Devil Woman
TTITLE3=The Calm At The Centre Of My Storm
TTITLE4=Where Love Begins
TTITLE5=Love Is A Miracle
TTITLE6=The Last Letter
TTITLE7=Like A Lion In The Winter
TTITLE8=Crawling On My Knees
TTITLE9=Border Town Woman
TTITLE10=Just Someone I Used To Know
TTITLE11=Lilli's White Lies
TTITLE12=You'll Never Take Her Love From Me
TTITLE13=Have I Told You Lately
EXTD=
EXTT0=
EXTT1=
EXTT2=
EXTT3=
EXTT4=
EXTT5=
EXTT6=
EXTT7=
EXTT8=
EXTT9=
EXTT10=
EXTT11=
EXTT12=
EXTT13=
PLAYORDER=
